name ../VV_Laxity/vv_0.mot
datacolumns  10
datarows 23
range   7.00000000 7.22000000
cursor 1.0 1.0 0.0
keys m_key
wrap
enforce_loops no
enforce_constraints no
calc_derivatives -1.000000
event_color 0.000000 0.000000 0.000000
endheader
            time femur_r_force_vx femur_r_force_vy femur_r_force_vz femur_r_force_px femur_r_force_py femur_r_force_pz femur_r_torque_x femur_r_torque_y femur_r_torque_z 
      7.00000000       0.00000000       0.00000000       0.00000000      -0.00600000      -0.51300000       0.00000000      -8.98566254      -0.00000000       0.00000000 
      7.01000000       0.00000000       0.00000000       0.00000000      -0.00600000      -0.51300000       0.00000000      -9.00066774      -0.00000000       0.00000000 
      7.02000000       0.00000000       0.00000000       0.00000000      -0.00600000      -0.51300000       0.00000000      -9.01557346      -0.00000000       0.00000000 
      7.03000000       0.00000000       0.00000000       0.00000000      -0.00600000      -0.51300000       0.00000000      -9.03037933      -0.00000000       0.00000000 
      7.04000000       0.00000000       0.00000000       0.00000000      -0.00600000      -0.51300000       0.00000000      -9.04508497      -0.00000000       0.00000000 
      7.05000000       0.00000000       0.00000000       0.00000000      -0.00600000      -0.51300000       0.00000000      -9.05969003      -0.00000000       0.00000000 
      7.06000000       0.00000000       0.00000000       0.00000000      -0.00600000      -0.51300000       0.00000000      -9.07419413      -0.00000000       0.00000000 
      7.07000000       0.00000000       0.00000000       0.00000000      -0.00600000      -0.51300000       0.00000000      -9.08859693      -0.00000000       0.00000000 
      7.08000000       0.00000000       0.00000000       0.00000000      -0.00600000      -0.51300000       0.00000000      -9.10289805      -0.00000000       0.00000000 
      7.09000000       0.00000000       0.00000000       0.00000000      -0.00600000      -0.51300000       0.00000000      -9.11709715      -0.00000000       0.00000000 
      7.10000000       0.00000000       0.00000000       0.00000000      -0.00600000      -0.51300000       0.00000000      -9.13119387      -0.00000000       0.00000000 
      7.11000000       0.00000000       0.00000000       0.00000000      -0.00600000      -0.51300000       0.00000000      -9.14518786      -0.00000000       0.00000000 
      7.12000000       0.00000000       0.00000000       0.00000000      -0.00600000      -0.51300000       0.00000000      -9.15907878      -0.00000000       0.00000000 
      7.13000000       0.00000000       0.00000000       0.00000000      -0.00600000      -0.51300000       0.00000000      -9.17286627      -0.00000000       0.00000000 
      7.14000000       0.00000000       0.00000000       0.00000000      -0.00600000      -0.51300000       0.00000000      -9.18654999      -0.00000000       0.00000000 
      7.15000000       0.00000000       0.00000000       0.00000000      -0.00600000      -0.51300000       0.00000000      -9.20012962      -0.00000000       0.00000000 
      7.16000000       0.00000000       0.00000000       0.00000000      -0.00600000      -0.51300000       0.00000000      -9.21360479      -0.00000000       0.00000000 
      7.17000000       0.00000000       0.00000000       0.00000000      -0.00600000      -0.51300000       0.00000000      -9.22697519      -0.00000000       0.00000000 
      7.18000000       0.00000000       0.00000000       0.00000000      -0.00600000      -0.51300000       0.00000000      -9.24024048      -0.00000000       0.00000000 
      7.19000000       0.00000000       0.00000000       0.00000000      -0.00600000      -0.51300000       0.00000000      -9.25340033      -0.00000000       0.00000000 
      7.20000000       0.00000000       0.00000000       0.00000000      -0.00600000      -0.51300000       0.00000000      -9.26645441      -0.00000000       0.00000000 
      7.21000000       0.00000000       0.00000000       0.00000000      -0.00600000      -0.51300000       0.00000000      -9.27940240      -0.00000000       0.00000000 
      7.22000000       0.00000000       0.00000000       0.00000000      -0.00600000      -0.51300000       0.00000000      -9.29224397      -0.00000000       0.00000000 
